<svg xmlns="http://www.w3.org/2000/svg" viewBox="0 0 1901 1901">
<rect width="100%" height="100%" fill="#000"/>
<g transform="translate(284,1694) scale(1,-1)"><path d="M673 1510C326 1510 107 1343 95 1049H358C370 1206 503 1282 671 1282C847 1282 970 1195 970 1067C970 951 862 902 701 860L532 816C283 752 136 626 136 416C136 153 368 -23 680 -23C998 -23 1210 156 1217 405H958C945 278 837 204 676 204C508 204 406 287 406 400C406 525 539 575 660 605L799 641C1020 694 1237 809 1237 1069C1237 1331 1029 1510 673 1510Z" fill="#fff"/></g>
</svg>